/* XPM */
static char *floortile[] = {
/* columns rows colors chars-per-pixel */
"64 64 131 2 ",
"   c #131312",
".  c #1B1A17",
"X  c #1E1C1A",
"o  c #211F1D",
"O  c #23211F",
"+  c #252422",
"@  c #292623",
"#  c #272824",
"$  c #2B2925",
"%  c #2F2E2C",
"&  c #302D2C",
"*  c #35332E",
"=  c #38352F",
"-  c #363430",
";  c #3A3632",
":  c #3C3933",
">  c #413C35",
",  c #423F3A",
"<  c #47433D",
"1  c #48453F",
"2  c #4D4945",
"3  c #4A494A",
"4  c #514C47",
"5  c #57534F",
"6  c #5A544B",
"7  c #555352",
"8  c #5A5652",
"9  c #5C5A55",
"0  c #5C5A59",
"q  c #60594F",
"w  c #645E55",
"e  c #666156",
"r  c #696356",
"t  c #666259",
"y  c #6B655B",
"u  c #6E695D",
"i  c #70665C",
"p  c #736B5E",
"a  c #796D5E",
"s  c #6A6560",
"d  c #6F6960",
"f  c #736C62",
"g  c #7B6F61",
"h  c #777161",
"j  c #7A7264",
"k  c #75736A",
"l  c #7A756B",
"z  c #7E796E",
"x  c #7A7770",
"c  c #7E7A71",
"v  c #817B6F",
"b  c #817C71",
"n  c #868375",
"m  c #8A8275",
"M  c #8E8579",
"N  c #94877A",
"B  c #948B7B",
"V  c #9B8D7D",
"C  c #97907F",
"Z  c #99927F",
"A  c #A3927E",
"S  c #968B80",
"D  c #9B8D80",
"F  c #979182",
"G  c #9B9384",
"H  c #9F9887",
"J  c #9E9789",
"K  c #9F988A",
"L  c #A29684",
"P  c #A29986",
"I  c #A99B87",
"U  c #A69788",
"Y  c #A59B8A",
"T  c #AB9D8B",
"R  c #ACA28D",
"E  c #B2A48E",
"W  c #BAA68E",
"Q  c #B4AA8F",
"!  c #ADA391",
"~  c #AFA998",
"^  c #B2A693",
"/  c #BAA791",
"(  c #B5AA94",
")  c #BBAC95",
"_  c #B4A79A",
"`  c #B5AC9A",
"'  c #BBAD9A",
"]  c #BDB196",
"[  c #B6B09D",
"{  c #BDB29C",
"}  c #B7AFA1",
"|  c #BCAFA1",
" . c #B7B1A1",
".. c #BDB3A1",
"X. c #BFB8A5",
"o. c #C1AE96",
"O. c #C1AF9B",
"+. c #C3B196",
"@. c #CBB397",
"#. c #C3B49C",
"$. c #C9B69D",
"%. c #C6B99E",
"&. c #CABA9E",
"*. c #D1BD9E",
"=. c #C3B6A2",
"-. c #C9B7A2",
";. c #C5BAA3",
":. c #CBBCA3",
">. c #C5BBA9",
",. c #CBBDA9",
"<. c #D1BEA4",
"1. c #D0BFAA",
"2. c #CDC09F",
"3. c #D0C09F",
"4. c #CEC1A5",
"5. c #CDC1AB",
"6. c #D2C2A5",
"7. c #D3C4AB",
"8. c #D9C5AB",
"9. c #D6C9AE",
"0. c #DACAAE",
"q. c #CDC3B0",
"w. c #D2C5B0",
"e. c #D5C9B2",
"r. c #DBCDB2",
"t. c #D9CFB9",
"y. c #DED0B6",
"u. c #DDD1BC",
"i. c #E1CEB2",
"p. c #E2D1B4",
"a. c #E3D4B9",
/* pixels */
"0 0 0 0 0 0 9 9 0 0 9 9 0 9 0 0 w 0 0 0 7 3 9 0 0 0 0 0 9 0 0 0 9 9 0 9 0 0 0 0 9 9 3 5 0 0 0 w 0 0 0 0 0 9 9 0 0 0 0 0 0 0 8 s ",
"w { ! ^ T T ( ) / E R Q ! T L Y T U R ' 6 X P ( ^ ^ T ! ] o.W R ! ^ E U Y T T T { N X w =.^ ^ E T ' +./ E E ^ ^ T Y ! T T ^ ! f ",
"u 8.:.6.6.&.0.0.:.&.&.:.6.$.{ =.#.#.:.a.p + E 7.6.8.;.6.0.8.$.%.4.5.4.#.=.;.#.%.p.^ # i r.4.9.,.<.0.r.:.%.6.5.8.$.=.:.-.$.8.,.m ",
"r 9.:.6.$.) @.&.%.) o.+.;.=.) -.#.o.#.r.r O E 9.6.;.O.@.&.&.{ o.+.%.:.' #.-.+.+.0.T @ r r.7.6.%.+.&.:.%.o.+.$.,.=.O.-.$.#.,.:.b ",
"t 1.7.%.#.&.6.&.%.) / =.,.#.) %.{ ' { r.r O Y r.,.%.%.6.3.3.#./ O.,.;.O.%.=.O.' e.Y # w e.7.&.%.6.6.3.&.) ) :.,.#.#.:.=.' ,.%.v ",
"r :.#.%.%.;.6.:.<.;.{ #.=.;.' ,.{ ( ' r.u O T ;.%.&.%.4.1.*.<.#.{ %.:.' =.=.' ' 7.R $ r 8.;.2.;.:.6.6.<.:.{ #.:.=.=.:...) ;.;.m ",
"t ;.;.%.#.#.4.%.o.@.-.$.#.-.%.,.' ' ;.8.e O P :.;.:.] :.:.#.@.=.;.$.=.%.,.=.` %.0.L + w 5.;.:.#.&.6.%.@.$.:.;.$.=.,.,.' ..6.#.z ",
"r =.#.{ { { &.:.>.$./ O.) ) %.' ` ;.=.0.r + P ;.+...{ %.:.:.:.o.' O.) $.#.` =.=.0.I # e :.%.%...%.:.,.,.$.) #.O.+.:.' ..;.6.%.b ",
"r 6.;.5.=.' ;.;.;.#.+.+.o.%.<.{ =.;.` 5.u + R :.>.5.{ %.:.;.%.#.$.o.$.6.;.#.:.{ >.Y $ r 8.;.q.;.{ :.,.;.$.$.@.#.6.6.%.;.,.....b ",
"y 9...{ =.' %.^ ' #.:.1.%.#.#.;.#...` >.w + R 4.{ ..{ %.' ' #.;.6.:.=.#.;.=.=.{ >.F @ u 9.;.=.=.=.{ ' { ;.1.1.=.#.=.;.=.=. .` z ",
"t 9.;.;.{ #.#.{ #.%.;.=...' ` { >.=.X.u.t O R 9.:.;.{ &.#.{ %.;.,.=.' ` } =.;...t.! + e r.5.;.#.%.&.#.%.;.:.-.....} =.,.X.5.>.b ",
"r 5.#.#.{ :.%.#.:.:.{ { | =.` ' #.' } q.9 + R :.#.{ ;.:.{ ;.4.#.#.O.=...` #...` 5.H + y 7.;.#.;.:.%.=.6.:.+.=.=.=.{ ' =.' >...l ",
"f 6.#.{ { #.;...;.#.=.=.) ( =.#.%.#._ >.w $ E 4.=.#.#.:.;.;.=.=.=.O./ =.=.#.-.' X.G @ p 8.=.%.+.;.;.=.,.=.;.-.' ' :.%.;.=.} ` l ",
"p 9.:.4.+.%.=.:.+.{ ` ..' ) ) :.:.=.' >.w # / 4.4.%.#.#.:.%.+.` ..=.' ) $.,.:.' >.J $ p 0.4.1.%.%.:.;.%.{ ..=.{ ) O.1.,.=.=.` c ",
"p 0.;.;.:.+.:.6.%.[ ( =.| _ / | ` ..>.5.w @ ( 7.-.<.#.%.6.6.{ ( ....' ) ' } | >.w.J @ f y.:.:.<.#.4.8.&.{ ` =.| ' O.=.| =.,...v ",
"f 8.] #.&.%.,.$.;.) O.O.^ ' O.:.%.#.' 5.w @ ( :.+.&.:.,.;.-.%.{ +.' ` ' -.:.#.O.,.Y + p 0.#.%.*.:.5.;.$.#.O.O.' ' -.:.=.=.=.#.c ",
"t 5.{ %.#.#.{ :.=.=.:.=.#.{ #.#.=.+.{ q.w O ! ;.%.#.=.#.;.-.;.;.;.=.+.#.=.%.%.{ 5.J + r 5.#.=.;.#.%.:.=.;.:.;.#.%.=.=.%.%.=...l ",
"u q.%.;.=.#.o.O.O.#.` } =.-.) ` } { =.,.9 O ! 5.;.:.=.O.@.O.#.{ } ..:.o._ } { #.5.S + p e.:.,.:.%.#.$.=.=.....>.-._ | ..=.,.' k ",
"d 9.;.=.:.' #.) %.:.:.:.' ) ' '  .=.=.e.e + ( 5.X.,.{ #.' +.:.,.,.=.' ' O.{ ;.=.e.Y + p y.;.>.;.{ #.O.-.6.,.;.' #.O.#.X.=.5.;.l ",
"y e.5.;.;.%.,.#.%.6.e.<.' { +.=.,.4.%.8.e + R t.;.;.;.4.;.#.<.0.8.=.{ { =.:.5.&.7.P # y u.7.;.;.:.1.%.:.8.r.6.{ #.#.-.5.6.6.{ v ",
"w %.] Q ( / ( R E / ] ( ! ^ ^ ( ( ) E ' 8 O L %.) ( ] ) ! E E +.) ! ^ ^ ( ( ) ( ` M + w :.{ ( ] ) ) Q E ] +.( ( ( ( ` ( ] ( Y k ",
"@ + + + + + + + O O O O O + O + + + + O .   O + + + O O O O O @ + o + + + + + + + o   . @ @ + + O O O O # + O O + + + + + + O % ",
"8 Y V F B B C G A V B V Z B m N B M B P 4 O m G Z V N C H A A B N Z S M M V B B P l o 6 T F L N B Z A A V B Z Z N m V V N G N s ",
"i r.4.7.7.&.i.0.7.&.:.5.6.$.#.-.;.#.6.a.p O ) 8.7.9.&.8.p.0.<.2.4.7.1.#.=.;.$.&.p.E $ p p.7.8.7.7.i.p.8.<.4.9.7.:.=.:.:.%.0.7.n ",
"r 7.:.4.%.o.&.&.#.] +.#.:.=.) ;.#.+.+.p.y O R 7.4.,.#.@.*.:.{ +.#.%.:.O.#.$.#.#.e.R @ r 0.7.6.;.#.*.4.%.O.@.$.,.-.O.:.$.@.6.:.b ",
"r 7.8.:.#.&.*.*.&.) / %.;.#.' $.{ { #.0.e O T r.6.%.%.<.&.2.{ / #.,.%.{ #.-.+.' 9.R + w r.9.<.%.&.6.&.&.) o.:.,.#.+.;.=.{ :.;.b ",
"r :.=.{ %.;.6.:.<.=.) #.=.-.` :.' ' ' r.u + T :.%.%.%.6.<.<.:.{ ) =.,.{ =.=.' ' 7.R $ e 7.;.%.%.6.6.6.<.-.{ #.<.=...:.{ ' :.;.n ",
"t :.%.:.%.+.<.%.o.$.;.$.#.-.#.1.` ' %.8.e O Y :.:.:.+.%.,.@.@.-.:.@.$.=.6.;.` +.8.Y @ e 5.:.4.%.$.6.&.@.-.:.&.$.:.:.5...' 6.#.b ",
"t ;.{ { { #.;.:.;.%./ #.' ) %.=.` X.:.0.t + P ;.#.{ { ;.:.;.:.] O.#.) %.=.` ..:.r.P + t ,.;.#...%.:.:.;.%.O.=.O.+.:...[ ;.7.=.v ",
"t :.X.5.{ { &.;.-.#.+.+.o.$.6.) =.;.` 7.y + Y :.;.4.{ %.:.;.;.+.@.o.+.6.=.#.,...,.R $ r 7.;.5.;.#.,.5.,.$.@.O.+.,.6.{ ;.,.=.=.m ",
"u 7.{ ..;.{ #.` =...:.,.#.=.=.;.#.=.` X.w O Q 4.X.;.{ =.{ { ;.;.1.=.=.=.;.=.;.{ X.F # u 9.;.;.=.=.#.{ =.;.<.,.=.%.:.:.%...{ ! x ",
"t 9.4.%.{ { %.] { +.:.:.{ ' ` =.=.X. .u.t O R 9.;.;.{ %.{ { { &.1.=.#.` ..X.;.{ e.R O t e.4.;.{ %.%.{ { ;.6.,.=.' ..=.>.X.5.>.c ",
"r 4.=.=.#.;.#.#.:.;.{ O...=.` ' -.} ..e.w O R 4.=.{ ;.&.#.;.4.=.O...=...' =.=.' w.Y + r 9.;.=.;.,.$.=.6.;.#.#.=.=.} #.-.O.>.=.x ",
"f 1.#.+.+.=.:...:.=.#.=.) ` =.) #.{ ~ >.w @ E ,.#.#.%.;.=.:.:.=.:.O./ =.=.' #.` >.F + p 8.=.#.#.;.;.=.,.;.;.=.' #.;.#.=.=.} ` l ",
"p 8.;.;.' %.=.:.+.{ } =.' ) ' 1.:.-.` ,.w @ Q 4.:.%.+.;.;.%.+.` ..{ ' ) -.1.:.#.;.J @ p r.:.:.#.;.;.:.$.....=.' ' $.1.7.-...` b ",
"p e.-.<.&.{ %.6.%.[ ` =.O._ / ' } | =.7.w @ ( 5.;.<.#.#.7.:.{ ` ..=.` ) ' ..| =.5.J $ f r.:.6.:.%.4.6.&.[ { =.=.) ) O.| X.,.{ b ",
"h 0.{ #.*.$.,.=.:.' ) ' _ ` ' :.=.#.| 8.e # ) :.+.*.$.,.,.<.#.' ' ' ' ' -.-.%.O.5.Y + h e.#.&.*.:.4.:.:.+.' ' ' ' $.,.=.=.=.=.x ",
"t 5.) %.=.%.=.-.{ %.:.#.+.+.=.#.$.{ ' q.w O ! ;.%.=.-.=.;.=.%.:.;.#.' #.=.%.;.` q.K + y 6.%.$.;.;.;.,.=.;.,.;.#.#.-.;.;.=.=...x ",
"r q.#.;.=.O.o.$.#...`  .=.-.) ` ..{ =.,.9 O ! ,.;.:.=.o.@.=.=.{ { ..-.O.' ..=.%.5.S + i e.;.,.;.{ #.-.=.%.{ ..=.-.' } =.=.,.' k ",
"f 9.;.;.>.' O.) #.:.;.;.` O.' ' [ ..=.e.w + ` 6.=.,...O.' +.;.:.:...#.' ' |  .=.8.P + p t.;.,.;.{ +.O.$.,.:.;.=.O.' { ..X.,.#.z ",
"u w.5.X.X.%.,.#.%.6.8.,.) ) { #.;.,.%.8.w + ! r.;.;...,.%.%.6.8.8.=.) { #.=.,.&.9.P + u a.,.;.;.;.4.%.4.8.0.5.) +.#.=.,.4.&.#.v ",
"u 9.:.%.;.&.%.{ +.&.6.;.=.%.{ ;.:.:.%.>.t + ^ e.:.;.&.4...+.#.6.,.#.;.#.=.:.,.&.4.G $ y y.5.;.4.4.;.{ $.6.7.;.;.;.;.:.,.4.:.` c ",
"& : : ; ; = : * * : : * * ; ; ; = : : : o   * > ; : = : ; * ; > ; * - ; : ; : : ; %   + > : : : ; ; * = > : * - ; : : ; : ; * : ",
"2 g f f i u u h a p p u p u r u p r u g : . r f f f y u h g p p u f f r y i u i g q X , l f f d u h g a p p u h i r f f u f u 7 ",
"h y.4.8.7.:.0.i.8.<.:.7.7.=.#.=.;.#.6.a.f @ ) e.6.e.:.8.p.i.6.,.5.7.1.%.=.;.%.&.a.^ # a a.8.0.6.6.i.p.8.<.6.w.8.-.-.,.;.;.8.8.n ",
"r 6.;.4.:.o.:.<.{ o.#.+.;.$.' -.#.#.$.p.i + R 6.4.4.%.#.<.;.+.@.#.;.:.' #.-.#.$.r.^ # r 9.4.6.;.#.<.6.$.#.$.%.,.-.O.:.=.$.6.1.n ",
"t 9.9.&.#.+.*.&.%.) / $.:.#.{ %.O.O.{ 0.t X T r.6.:.+.&.*.&.+.) @.:.;.{ #.;.+.{ 8.Y + e y.0.,.$.&.3.2.&.) o.:.:.#.+.:.;.{ :.$.v ",
"r :.%.#.&.:.6.*.:.#.) =.=.%.( :.' ' { r.u O T 6.%.$.2.6.6.6.;.' ' ;.:.' =.=.' ` 8.R $ e 6.:.%.&.6.6.6.4.#.) ;.5.=.{ :.{ ' :.%.n ",
"t ,.%.:.%.+.4.%.@.$.=.$.#.:.O.1.` ) #.e.r + T :.;.:.{ &.,.@.@.;.;.#.;.#.,.:.' ' 0.Y + e 5.:.4.;.%.6.<.@.:.;.&.$.:.-.5.{ ) ,.=.b ",
"e ;.#.+.{ +.:.;.=.$.O.#.O.) %.=.` ;.:.0.w + P ;.#.#.#.&.:.=.:.+.#.O.o.#.:.` ` ,.0.L + e 4.;.#.{ %.:.:.;.$.O.-.O.#.:.=.[ ;.8.#.z ",
"t ;.=.;.=.{ ;.:.>.%.o.#.o.#.1.) { ;.` e.y O I ;.;.;.{ %.:.,.;.+.@.o.+.6.#.` :.=.7.T $ e 5.;.>.;.#.,.,.:.$.o.#.o.;.:.{ ;.,.=.=.n ",
"u 7.=.>.=.' ;.' ..#.$.-.#.%.;.;.;.=.` >.w @ E 5.;.>.{ ;.#.=.=.%.-.=.$.:.,.;.;.} X.F @ p e.;.,.=.=.=.=.;.-.<.-.%.:.1.:.;.;. .^ v ",
"t 9.;.#.{ { #.( ' #.,.,.+.' ` =.=...[ w.e o R 8.;.{ { #.) ] { ;.7.-.' } =.=.=. .q.Y + t r.;.;.#.#.{ { { %.4.1.=.{ | =.=.=.>.X.z ",
"t 5.%.;.{ &.#.#.:.;.+.+...{ } ' ;.' =.t.t O R 4.;...;.;.#.;.4.=.O.=.=.| ` -.=...t.Y + t 8.:.;.;.4.%.%.4.:.#.=.=.=.} =.,...5.;.c ",
"p ,.#.#.#.%.;...:.=.=.=.' ' =.) +.' ` ,.9 # E ;.#.#.%.:.{ >.:.#.=.O.' =.{ ) { ` >.G # p 8.%.#.#.;.-.=.,.;.=.=.' ..=.{ +.{  .` l ",
"p 9.%.%.{ #.=.;.#.#.` =.) ^ o.,.:.;.` >.w # ( 5.:.#.+.=.;.%.%.' =.{ ) ) :.6.:.{ ;.G @ p 0.;.:.#.$.,.;.;.=.=.#.' ' $.1.6.;...` c ",
"p 9.:.<.%.+.#.7.+.[ ` X...' / | ..} #.5.w @ ( 6.:.<.%.+.6.&.{ ` ....' / ' =.....5.J @ p t.1.<.<.+.:.6.%.{ ` =.=.) ) O.=.X.>.' b ",
"f 0.#.#.:.#.6.;.4.' ( { _ / ' ;.{ #.=.w.w $ ) 5.+.:.$.,.4.,.%.( #.` ) _ -.=.=.=.w.P + h r.+.;.*.;.6.1.:.{ ' | ' / =.:.=.>.>.O.v ",
"y 5.) #.%.$.=.=.{ %.:.{ ' +.=.%.&.{ [ q.w + ! ;.#.-.&.=.;.%.#.;.=.] +.%.-.%.=.) 5.J + u 7.#.%.:.;.:.;.#.;.:.=.O.=.-.;.%.#.=.=.x ",
"y 5.#.=.=.%.o.&.=.{ {  .=.$._ ' ..{ =.,.w O ! ;.%.=.=.o.&.;.=.{ ..X.;.O.' { =.=.q.F + r w.;.;.;.#.#.:.;.=.=.X.=.$.' =.=.=.=.} l ",
"d 9.;.;.:...) ) +.=.=.=.#.#._ ' ` ..X.7.w + ( 5.;.,.=.' ) { =.;.=...%.' ' } ..=.8.G + p t.;.4.:.#.O.) %.;.;.=.=.%.' {  ...,.#.l ",
"u w.5. .{ { :.{ ;.6.7.:.` ) O.O.>.;.#.8.e O ^ 9.=.;. .:.%.#.6.8.7.#./ ' ' =.=.%.7.P + u y.,.;...=.:.%.:.9.0.:.) O.{ =.>.:.:.#.z ",
"u r.7.&.4.6.,.=.%.:.9.:.;.;.#.:.4.4.&.5.e O ( e.4.4.6.6.;.%.:.8.7.;.;.%.;.,.6.<.7.H # u u.6.4.4.7.:.=.&.7.8.4.;.;.;.4.9.6.4.{ c ",
"2 f h u p u p r y p f y r u u u y f u u < + e j u d u p y r p f u y u u p u f f f 8 + 1 j h u p p p u y f f y y p p u f f f t 7 "
};
