/* XPM */
static char *tile7[] = {
/* columns rows colors chars-per-pixel */
"64 64 219 2 ",
"   c #470D00",
".  c #4F0C03",
"X  c #550D00",
"o  c #5A0E02",
"O  c #5B0E09",
"+  c #4E1303",
"@  c #4C1900",
"#  c #541302",
"$  c #5C1402",
"%  c #551B02",
"&  c #5C1A01",
"*  c #54130A",
"=  c #5B150A",
"-  c #5D1A09",
";  c #53180A",
":  c #5F1512",
">  c #630D02",
",  c #6A0E01",
"<  c #621502",
"1  c #6A1501",
"2  c #641B02",
"3  c #6B1C02",
"4  c #63150A",
"5  c #6C170A",
"6  c #641C0A",
"7  c #6B1B0A",
"8  c #731602",
"9  c #731D02",
"0  c #791D02",
"q  c #741F09",
"w  c #781909",
"e  c #651912",
"r  c #5E2200",
"t  c #522101",
"y  c #642202",
"u  c #6C2302",
"i  c #672A05",
"p  c #6D2902",
"a  c #65250A",
"s  c #6B220A",
"d  c #6D2909",
"f  c #732402",
"g  c #7B2402",
"h  c #742B01",
"j  c #7C2B02",
"k  c #74230A",
"l  c #7B250B",
"z  c #742A0A",
"x  c #7C2C0A",
"c  c #753204",
"v  c #7D3202",
"b  c #7E3902",
"n  c #7B320A",
"m  c #692410",
"M  c #772611",
"N  c #832503",
"B  c #832C02",
"V  c #8A2D03",
"C  c #822209",
"Z  c #822C0A",
"A  c #8A2E0A",
"S  c #972F0A",
"D  c #843303",
"F  c #8B3402",
"G  c #853A01",
"H  c #8C3B02",
"J  c #84330B",
"K  c #8C330B",
"L  c #843C0A",
"P  c #8D3B0A",
"I  c #923502",
"U  c #993702",
"Y  c #933B02",
"T  c #9A3C03",
"R  c #93340A",
"E  c #933D0B",
"W  c #993C0A",
"Q  c #842D12",
"!  c #873015",
"~  c #8E3211",
"^  c #8B3B12",
"/  c #983D10",
"(  c #A33C03",
")  c #A43D0A",
"_  c #A83C0B",
"`  c #8C4302",
"'  c #8D4900",
"]  c #8C440A",
"[  c #864309",
"{  c #944303",
"}  c #9B4402",
"|  c #944902",
" . c #9C4B02",
".. c #94420B",
"X. c #9B430A",
"o. c #9B490A",
"O. c #974C0B",
"+. c #975000",
"@. c #9B5201",
"#. c #9F500D",
"$. c #934311",
"%. c #984211",
"&. c #9D4D10",
"*. c #A34502",
"=. c #AA4502",
"-. c #A44C03",
";. c #AB4D03",
":. c #A2450B",
">. c #AC470B",
",. c #A34B0A",
"<. c #AA4D0A",
"1. c #B34C02",
"2. c #BB4A02",
"3. c #B24B0A",
"4. c #A45202",
"5. c #AB5402",
"6. c #A65B02",
"7. c #AD5A03",
"8. c #A45209",
"9. c #AC540A",
"0. c #A4580B",
"q. c #AB590A",
"w. c #B45402",
"e. c #BB5503",
"r. c #B45B02",
"t. c #BB5C02",
"y. c #B4540A",
"u. c #BC550B",
"i. c #B35B0A",
"p. c #BB5D0B",
"a. c #A04C10",
"s. c #A94F10",
"d. c #B14D12",
"f. c #A25211",
"g. c #AA5012",
"h. c #B35812",
"j. c #AF6001",
"k. c #B46202",
"l. c #BC6202",
"z. c #BE6A02",
"x. c #B6630A",
"c. c #BC6309",
"v. c #BC6A0B",
"b. c #BF7200",
"n. c #BC6012",
"m. c #C55602",
"M. c #C35D02",
"N. c #CA5C01",
"B. c #C45D09",
"V. c #C95D09",
"C. c #C36402",
"Z. c #CA6502",
"A. c #C46B02",
"S. c #CC6B03",
"D. c #C3640B",
"F. c #CB630A",
"G. c #C56B0A",
"H. c #CC6C0A",
"J. c #D26603",
"K. c #D36C02",
"L. c #DA6D02",
"P. c #D46E0A",
"I. c #C57202",
"U. c #CC7202",
"Y. c #CD7902",
"T. c #CC730B",
"R. c #CF7A0B",
"E. c #D47402",
"W. c #DB7503",
"Q. c #D47B03",
"!. c #DC7C02",
"~. c #D3730B",
"^. c #DB740B",
"/. c #D67C0A",
"(. c #DC7B0A",
"). c #D16F11",
"_. c #CF7112",
"`. c #D57310",
"'. c #D87710",
"]. c #DD7B13",
"[. c #D37918",
"{. c #D07912",
"}. c #E37603",
"|. c #E97702",
" X c #E37C02",
".X c #EA7D02",
"XX c #E27409",
"oX c #E37D0A",
"OX c #EC7D0A",
"+X c #F27F0B",
"@X c #E07D12",
"#X c #D58101",
"$X c #DD8301",
"%X c #DD8A02",
"&X c #D78309",
"*X c #DD8409",
"=X c #DD8A0A",
"-X c #DF8314",
";X c #E48402",
":X c #EB8402",
">X c #E48A02",
",X c #EB8A02",
"<X c #E4840B",
"1X c #EA850B",
"2X c #E48A0A",
"3X c #EC8B0A",
"4X c #F28501",
"5X c #F18A01",
"6X c #FA8B01",
"7X c #F28409",
"8X c #F18B0B",
"9X c #E69200",
"0X c #EC9001",
"qX c #F49102",
"wX c #F89200",
"eX c #E38513",
"rX c #EF8610",
"tX c #ED8F11",
"yX c #F08E11",
/* pixels */
"W E.=XQ.K.K $ r.5Xr.% z y.K.L.l.Y p ..E.:Xw.A 3 2 9 ( H.,Xl.& H E.,X:X:X%XK.g a W.:Xt.h = q 3 s K t.$XS.F k F X.-.v X g ~.3X-.$ ",
"W K. XW.w.2 j  X^.g f E.>X>XU.R.,XQ.{ l o.#X;XE.l.C.W.:X;X-.X I Q.2X2X>X*X8.< } ,Xz.f f 7.E.W.S.-.N x A.:XA.G f > 2 v r.:X X} < ",
"n w.m.w.j 2 r.,X4.y T.3X7.B k 0 B p.>XE.F z 7.:X:X>X>X>XE.E + n S.!.:X;XD.p u E.$XG h G.:X X~.[.$X<X6.j I {.>XE.p.r.z.W.:XQ.| $ ",
"$ f ! u < I !./.e  .3X8.$ F <.7.Y f G E.:X{ 6 | E.2X$X<XW.5.r # F e.Z.u.c $ -.5Xh.8 M.wXD.D 2 $ g 4.;XW.v h C.,X,X!.Q.;X3X;Xr.g ",
"j < > & H `.,X .3  XE.f P Q.4X,X,XA.n u E. XF % ;.}.:X<X XK.} 1 # y p 2 * D !.;Xj K :XU.u 2 Y  .K 4 G  XW.Z l Z.3X<X$X>X:X:XW.u.",
"C.;.X.4.H.:XE.u G ;X9.9 H.,XoXE.!.6XE.h H :XZ.O R L.;X=X:X;XW.y.F 3 % & K F.,XC.f 5.>X} = 4.}.:X$X8.& { 6Xl.2 -.#X:X;X X:X:X:XW.",
":X:X!.!.2X:Xr.* o.>X{ g U.,XH.w.V.}.:X%.0  X~.: J W.>X%X$X>X>X%X^.C.q.7.Z.<X$Xw.3 r.5XY $ x..X:X%XW.v u Q. Xf Y !.3XW.l.l.I.#X2X",
"#X;X:X2X:X X-.+ ;.9X;.8 A.5XU.M.z.1X;X,.f #XI.%  .1X;XL.N.t.S.;X:X:X X|.;X=X$Xe.4 5.4Xu.& O.1X>X,X}.G 4 E.Q.g Y ;X;X7.F k j *.S.",
"-.P. X%X<XXXw.& B $X/.l B Q.,X$X X,X/.N H >X1.y P.:XM.K 3 a N -.U.%X%X,X:X%X2XS.f j U.2XF <  .E.E.8.2 v ;XS.3 9.>XZ.d + o > $ u ",
"r -.K.!.;X;XH.{ < } >XA.x Z t.oX.XU.{ 5 k.<XA H ;XT.g > 3 3 1 2 *.K.;X3X;X:X:X$Xt.l ! Q.;XY 2 7 y - 6 p.1X:.p E.2XB # n } *.h # ",
"+ N M.oX;X>X2XQ.o.y L !.E.` u N Z 8 3 <.0X7.5 U.;XE 4 I 7.w.W O f Z.;X X;XW.E.<X6XK.F N z.>XU.| X.} S.qXC.f | 6Xe.$ n Z.Q.W.u.b ",
"% f M.:X;X;X:X>X6XS.G f r.$XE.y.| -.Z.qXU.h H ,XB.2 F J.$XQ.t.f 6 r.:X;XC.E D K 5.E.2Xr.k G A.7X:X,X,Xl.f j /.:Xh u C.:X:X,XQ.4.",
"= B E.>X~.w.Y U -.E.3Xl.B j y.E.<X>X:XF.9 p P.7XH y i. X*X*XC.h q C.3XG.g # y j a u T ~.!.5.N j } X.H 1 k z.3X7.# } ^.,X%X>X;Xe.",
"= ( ,XQ.P 1 9 j B f A D.;Xv.G f B D G < & 7.3XS.3 j F. X>X.XB.u B  X(.j 1 q.Y.<X XS.*.g Y Y.;Xp.I j f I C.5XXXH # r.:X$X<X:X<X<.",
"y I.3X} 3 } U.=X XK.5.Z B C.2XE.' x p j 9.$X;Xl.3 f B.!.;XL.} < 4.,X<.& i.,X!.S.e.U.;XW.-.z Y |.,X^.U.(.2X:XV.f & r.$X>X2X,XT.G ",
"..,XG.8 X.3X:XA.j.C. X>X9.g U E.5XXXS.S. X:X2Xm.u & *.Z.Z.*.2 h W. Xg ] ,XJ.C 2 9 z f 9.>XI.G u k..X,X9X$X1Xt.i $ X.K..X:X!.-.$ ",
"U.:XK j  X;X[ r $ 4 3  .2XE.N f z.4X7X;X>X*X%XE.{ < 4 D B : 3 r.,Xf.2 E.Q.k h e.E.Z.5.h B /.1XH 1 } Y.<X>X;XZ.H ; 2 } t.l.,.3 % ",
":XG.2 7.4Xo.# A q.i...$ H ;XQ.u x S.2X>X;X;X>XoXZ...u < > k ;. X!.3 } ,X-.u G.:X:X:X3X~.F g !.#Xu u r.(.$X$X}.V.H < o y i ; $ ;.",
",X9.5 Y. Xk h J.;X5X|.:.$ 7.3X9.$ w.;X>X X;X;X:X:XW.r.-.*.t.^.5Xr.$ k.:XC I .X>XS.Z.Q.5Xl.5 y.9Xo.X -.XX>X%X>X1XT.y.B 2 & 2 U E.",
";X..9 Q.$Xf v .X9X=X<XI.u Z :XZ.2 5.;X;XK.t.l.E.;X,X:X X!.$X>X$X/ 2 I.;XZ T :X/.p.5.A.eX#Xv ( :Xw.2 t..X:X>X#X:X:X:XU.w.;.1.Z.<X",
" X,.< M.,X$.= r.:X>X,XA.3 A ,Xw.1 M.5XU...k u j 8.A.<X3X>X%X2XW.P $ v.,XY f /.:XK.t.U.1X#Xj ) 0X..u H.7XE.l.7.e.E.#X>X:X(.E.$X:X",
":Xl.u K oXE.g u <.S.t.H # 6.>X} f !.>XY < $ & o $ h i.^.:X:X;XW.y.$ b >X~.k L <X,X,X:X:Xr.9 t.$Xz ` ;X(.} f 5 9 F i.;X:X<X;X>X>X",
":X2Xw.3 W ;X/.G 2 < 2 # ' >XP.2 5.>X7.< h o.7. .p # f w.Q.;X>X>XP.Y $  .>XA.9 C p.Q.E.y.9 H >Xk.3 H.,X*.& 7 g u # N e. X3X:X;X<X",
"P.;X3XA.h D H..X~.w.w.A.5X}.V f oXQ.l 2 l.|. XW.u.f # { E.;X2X;X2X;X-.5 Y $X/.{ u 9 7 3 H Q.<Xx P >XZ.5 u 0.m.5.x o { Y.>X!.E.P.",
"l F w.(.!.<.g F D.(.>X;XS.F 1 l.6X-.# @.<X%X;X:XW.` o Y (.:X.XQ.Q.!.5XE.K p 4.>X(.M.r.F.4X>X..2 U.;XD 5 w.}.|.S.*.& D E.:X~.$.v ",
"u b p d @.!.Q.5.B 0 B B 5 9 q.>X_.u d _.:X:X:X%XXX` $ 8.>XeXy.F g B | A.:XF.V d ;.S.$X!.E.` # ;.>XZ.3 ^ E.:X:X*X1.o R  X%X$.$ 3 ",
";X,X XD.X.g T W.].l. .H } C.;X>X9.X I |.:X>X;X>XW.v 3 S.>X0.9 9 ~ H D l F C.*Xc.K 3 u h 2 $ F Q.:X;.4 ..W.;X>XW.:.& 3.6Xr.2 G G.",
"A.7.9.Z..XE.| p -.<X3X X#X;X:X X{ # U E.%X=X>X>X7.2 P ;XT.f j I.;X:X:XW.7.g B U.,XU.| K B } E.;X!.T & { L.;X XF.f u E.;XB j Q.,X",
"3 9 f u j t.2XS.g f k.;X3X:X:XE...@ l C.!..X.XS.b 1 G.;XH g U.>X).7.;.t.!.$X} 9 @.!.:X^.P.E.$X>X}.} # x e.Z.w.H 2 ,.>X6.1 S.tX*.",
"..Z.}.L.| f Y 3XQ.f u 5.W.;X!.~.w.p * h 4.M.p.D . ..:XA.8 r.5Xu.y < & < q l.,Xu.2 E !.5X>X>X>X%X#XM.g = q v f < B }.oXh H ,Xw.q ",
"XX0X2X;X,Xc.8 { ,XD.> B A. X2X#XE.6.z # % i 2   g S.,X} g (.W.f 2 8.l.7.z 2 x.,X2.8 *.W.>X,X:X>X%X}.M.V 1 o 1 B F.5Xt.2 v. Xh F ",
">X XS.P.;X;X} 3 Q./.k f A.;X:X,X>X.XJ.) f & 2 x p.;X&XB G 2Xt.# ( ~.:X2Xl.3 B #X*Xf v E.5X$X@X}.:X4X$XA.u.-.;.C.*X;XP 3  XZ.3 y.",
"1XE.V.V.W.1Xr.u F.#Xu x }.:X:X!.;X%X:XoXS.r.1.t.!.:XE.j G >XA.= } eX;X9XQ.H & C.oXK j U.,XW.C.5.p.W.:X>X>X!.(.;X>XT.u j .XS.1 9.",
"#X%XE.E.;X>X,.8 E.~.2 a.,X(.x.*.=.p.Q.:X>X;XW.^.;X;X^.B j !.!.g 1 C.:X1XP.n & S.;XN I  X;Xq.v 3 y F 9.~.:X:X;X>X:XF.i y L.(.h H ",
"-.(.,X1X,XU.g [ 5X9.3 U.,X6.k 1 1 3 Y Z.;X>X>X2X2X;X$X7., ( qXA.d y G <.F $ D 2XE.2 9.5XC.6 * 8 r $ < D r. X;X;X;XS.H & 5.qXt.9 ",
"k N 3.p.-.k N S.$Xk | ,XZ.f 2 V J u < F S.$X>X;X(.:X,XeX,.8 } >XE.P y 2 y b T.:X{ 3 /.!.Z $ Y p.k.o.9 # v l.W.2X$X;XS.h ; i.1XM.",
"U. .k 2 7 B ~.,XO.2 Q. XA 1 } D.Z.=.3 1 r.;X:X}.C.C.S.!.:XC.F v K.>X;XJ.S.>X,Xe.2 9.3Xq.X Y E.$X:XW.9.2 % -.W.;X$X:X,XE.} 3 | #X",
"r. X|.L.Q.$X,XV.-  .,Xr.< W ~.$X;XJ.K 2 8.:X Xq.v 4 s j <.$XY.5.k F M.^.Q.L.>.7 D !. Xj 9 S.,X%X2X:XS.h $ 9.;X,X$XT.U.;X5XS.K l ",
"c v @.G.~.T.@.# h !.4XP 2 e. X>X=XS.R 1 r.5Xc.y % J { [ M k  .XXQ.<.g u d u 8 v G.5Xt.& X.!.>X*X;X,XE.f 1 C.4XQ.-.g f j ..K.!.G.",
":Xc.j 7 $ < = h C.,XK.x u M.$X>X;XZ.g 9 !.Q.G 4 l..X5X:X>XA.{ f -.$X;XV.-.{ 9.K.:XoX` X <.:X>X:X%X>Xp.2 n >X!.Y & Q { *.S g G l.",
"H Y.,XK.-.Y *.c. X>XH.x 1 -.E.E.F.' $ -.5Xq.< r.5XQ.5.*.=.A.$X^.G p e.:X,X:X!.>X:XY.v =  .#X:X2X:X XG $ z.,X>.; 3.XX,X>X3XW.y.l ",
"T 9 g.%X>XoXE.(.:X;XE.I = k *.2.Y 1 x Q.$Xh K ,XI.g 1 j g 9 F v.,X0.1 G U.:X2X;X;XS.F o h x.(.!.^.0.& Y  XU.g } >XoXk.} } l.(. X",
">XY 3 4. X:X:X,X2X:X:XM.B $ & 4 < 0 p.:Xr.; F.:Xj k x.Q.(.A.U 3 w.3Xi.% x Z.>X:X2XW.w.f # u { ;.H t 2 Z.8X{ k  X!.] % - 7 & h S.",
"E.1XH 3 Z.;X>X;X$X>X3X XZ.{ h k D w.:X Xh c :XM.8 w.7X:X<X,X(.*.9 K.:XG & 9.Q.3X%X>XW.r.v 1 o $ > % 5..XQ.9 o.5Xe.& c e.J.-.2 p ",
"*.4XC.< <.$X>XW.E.E.(.4X5X}.S.N.H.#X:XH.2 | ,X-.9 ~.:X!.U.Q.2XE.f ..>X7.< -.$X:X%X:X4X;XP.9.F z v ,.~.:Xk.3 t.:XX.& p..X>X*Xs.& ",
"G }.G.4 s.,X$Xu.Y K X.c.(.>X>X$X:X:X;X5.$ 5.3X .2 `.>XS.Z.E.2XoXD J >X7.< c.>X;XQ.S.W.:X:X:XE.z.A.`.;X:X5.< y.wX-.# 6.:X2X:XN.u ",
"W 9Xi.5 t.,Xc.g * # # u | S.;X%X>X:X X-.$ H 1XC.0 *.$X2XW. X:XE.p *.1XH p Q.1XF.U I I 4.A.:X,X,X;X;X,X:Xt.3 P ;XH.3 f Z. XW.5.& ",
"C.,XH h !. XF ; h H j $ # B C.}.%XOX$XA.n $ Z.3X-.2 8.;X5X:X!. .5 S.!.j o.4XS.B # = $ < F D.*X<X;X>X;X,X^.} 6 r.5Xc.2 6 G n 2 & ",
",XI.1 <.,Xq.X R N.~.K.1.u + Y Z.;X>X%X;XZ.h y A.,X-.8 V *.9.D $ } 4X5.r E..XL < B } T h $ I K.;X2X<X;X:X>X!.-.9 5.>XS.{ h y J C.",
"'.h g Q.;Xf p C.1X%X$XL.{ * B S.:X:X2X>X:XW.{ % -.:XY.W l f h 3.;X].g { >Xw.< F D.T.S.*.< 9 G.>X4XK.z.6.S.:X1Xl.M D S.4X:X#X:X>X",
"N 3 p.,Xy.$ } $X3X%X2X:X8.$ G U.>XoXZ.y.G.;X:XZ.j D c.;X&XQ. XtX XG 1 _.;XH 7 p. X>X}.m.p u D.>XQ...1 $ & h 4./.(.o.z K y.S.S.w.",
"f 9.:X!.j 2 c.1X;X%X;X X} o  .3X$X .0 1 4 s *.S.=Xe.h h #.C.K.M.j < } ,XS.f V J.:X2X Xe.u j !.;X{ X l -.e.} D w -.W.!.5.N w & y ",
"v.(.:XH.p y C..X,X;X:XQ.v 3 S.1X*.5 v 7.k.5.T C R S.2Xw.C 3 % @ 2 P U.,Xp.2 F Z.:X$XQ.o.4 } 6Xx.$ { -X:X X;X$XQ.' h <.!.>XC.y.w.",
";X>X;XC.u - 6.!.2X>X(.,.4 { ,XZ.5 U W.8X2X>X:XW.-.d | !.2XA.;.:. .Z.:X2Xw.1 s w.J.S.w.u g Q.!.k D >X$X8.n g Y k.+XY.v k k.%X8X:X",
":X,X%XC.V X h r.A.U.r.3 3 S.:XF v W.7Xc.G h G r.4X~.h l Z.,X$X!.Q.!.3X;XZ.K o h T E f 1 w.5X5.2 E.!.I 1 F *.W 3 j K.>X+.< :.Y.>X",
"<X:X;X/.r.z . s F B 3 % @.7XN.y r.3X7.& 4 j u & H /.(.D 3 z.,X>X;X<X$X>X;Xe.h ; # O & X.oX}.f [ ,X,.5 i.:X>X>XP.R 9 A.3XW > *.!.",
";X;X%X2X XM.F 2 X X 1 { Q.3XT f XXW.p u w.}.Q.;.$ F 2XY.1 T  X2X;X}.|.:X>X!.Z.*.F R ;.W.,X6.$ A. Xd T OX;X X!.*X!.D M  XL.1 v S.",
";X:X;X!.>X,X~.e.} } ;.A.>X^.V v $XU.1 G *XeX*X^...> C.,XP 8 S.>X!.Z.t.A.Q.,X,X!.E.T.#X:X!.G u W.U.1 u.,X/.C.t. X9Xy.3 I.;Xl h `.",
"$XE.Z.B.K.$X,X2X!.E.Q. X,XP.B h #X/.f j W.:X,X:X4.< 7.0XE f Y.>XF.Y p c Y C.!.:X4XeX%X>X~.z d  X~.y *.:XQ.Z.M.^.:XA.8 v.$Xf v  X",
"E.} j u D -.S.:X>X:X1X2X>XE.X.2 B.,X .$ { U.$XS.L & l.:XZ G :X}.F $ * # X 7 ..A. X:X$X;XS.D $ A.4X| 9 K.,X<X X>X1X .9 W.Y.2 9.:X",
"*.9 $ $ < 1 { K.%X;X:X:X>X3XP.N h S.wX*.4 a c g = F 2XH.7 1.6X5.@ u W =.n ; # G l.!.:X*XE.8.1 h .X!.g f x.(.;X&Xl.p U :X4.u E.2X",
"6 9 W <.I < 2 1.Q.:X>X$X!.<X,XE.G g l.rXV.Y h j *.Q.:XH g  X!.d y q.W.W.H. .& 2  .K.:X*X2X!.5.p j /.*X} f j Y K 1 B W.;Xh W ,Xl.",
"5 =.A.S.m.n $ ( W.8X~.k.| -.A.&X:X<.z Y K.8X;X X2X:X4.< w.,X7.= _ ].,X>X;XS.j *  .W.,X>X;X:X2XI.G f 9.;XI. .U F &.(.2X| f H.:XP ",
"G S.#X!.J.L % >.:X!.<.f $ 4 1 h 9.;XE.-.u D k.D.t.( > P #X(.j 3 S.>X;X2X2XS.F * ;.<X$XS.2.m.m.!.2Xt.n j Z.oX;X&X>X:Xy.4 ' ,XS.1 "
};
