/* XPM */
static char *tile41[] = {
/* columns rows colors chars-per-pixel */
"64 64 142 2 ",
"   c #38998B",
".  c #389A8C",
"X  c #399C8E",
"o  c #399D8E",
"O  c #3A9F90",
"+  c #3AA091",
"@  c #3BA293",
"#  c #3BA394",
"$  c #3CA495",
"%  c #3DA697",
"&  c #3DA798",
"*  c #3EA999",
"=  c #3EAA9A",
"-  c #3FAC9C",
";  c #3FAD9D",
":  c #40AF9F",
">  c #40B0A0",
",  c #41B2A2",
"<  c #41B3A2",
"1  c #42B5A4",
"2  c #42B6A5",
"3  c #43B8A7",
"4  c #43B9A8",
"5  c #44BBAA",
"6  c #45BCAB",
"7  c #46BCAB",
"8  c #48BDAC",
"9  c #49BDAC",
"0  c #4BBEAD",
"q  c #4CBEAD",
"w  c #4EBFAF",
"e  c #4FBFAF",
"r  c #51C0B0",
"t  c #52C0B0",
"y  c #54C1B1",
"u  c #55C1B1",
"i  c #57C2B2",
"p  c #58C2B3",
"a  c #5AC3B4",
"s  c #5BC3B4",
"d  c #5CC4B5",
"f  c #5EC5B6",
"g  c #5FC5B6",
"h  c #61C6B7",
"j  c #62C6B7",
"k  c #64C7B9",
"l  c #65C7B9",
"z  c #67C8BA",
"x  c #68C8BA",
"c  c #6AC9BB",
"v  c #6BC9BB",
"b  c #6DCABD",
"n  c #6ECABD",
"m  c #70CBBE",
"M  c #73CCBF",
"N  c #74CDC0",
"B  c #75CDC0",
"V  c #77CEC1",
"C  c #78CEC2",
"Z  c #7ACFC3",
"A  c #7BCFC3",
"S  c #7DD0C4",
"D  c #7ED0C4",
"F  c #80D1C5",
"G  c #81D1C5",
"H  c #83D2C7",
"J  c #84D2C7",
"K  c #86D3C8",
"L  c #87D3C8",
"P  c #89D4C9",
"I  c #8AD4C9",
"U  c #8BD5CA",
"Y  c #8DD6CB",
"T  c #8ED6CC",
"R  c #90D7CD",
"E  c #91D7CD",
"W  c #93D8CE",
"Q  c #94D8CE",
"!  c #96D9CF",
"~  c #97D9CF",
"^  c #99DAD1",
"/  c #9ADAD1",
"(  c #9CDBD2",
")  c #9DDBD2",
"_  c #9FDCD3",
"`  c #A2DDD4",
"'  c #A3DED5",
"]  c #A4DED6",
"[  c #A6DFD7",
"{  c #A7DFD7",
"}  c #A9E0D8",
"|  c #AAE0D8",
" . c #ACE1D9",
".. c #ADE1D9",
"X. c #AFE2DB",
"o. c #B0E2DB",
"O. c #B2E3DC",
"+. c #B3E3DC",
"@. c #B5E4DD",
"#. c #B6E4DD",
"$. c #B8E5DE",
"%. c #B9E5DF",
"&. c #BAE6E0",
"*. c #BCE7E1",
"=. c #BDE7E1",
"-. c #BFE8E2",
";. c #C0E8E2",
":. c #C2E9E3",
">. c #C3E9E3",
",. c #C5EAE5",
"<. c #C6EAE5",
"1. c #C8EBE6",
"2. c #C9EBE6",
"3. c #CBECE7",
"4. c #CCECE7",
"5. c #CEEDE9",
"6. c #D1EEEA",
"7. c #D3EFEB",
"8. c #D5F0EC",
"9. c #D6F0EC",
"0. c #D8F1ED",
"q. c #D9F1EE",
"w. c #DBF2EF",
"e. c #DCF2EF",
"r. c #DFF3F0",
"t. c #E1F4F1",
"y. c #E4F5F3",
"u. c #E5F5F3",
"i. c #E7F6F4",
"p. c #E8F6F4",
"a. c #E9F7F5",
"s. c #EBF8F6",
"d. c #ECF8F6",
"f. c #EEF9F7",
"g. c #EFF9F8",
"h. c #F2FAF9",
"j. c #F4FBFA",
"k. c #F5FBFA",
"l. c #F8FCFB",
"z. c #FAFDFD",
"x. c #FEFEFE",
"c. c white",
/* pixels */
"X X X X X X X X X X X X X X X X X X X X X X X X X X X X X X X X X X X X X X X X X X X X X X X X X X X X X X X X X X X X X X X X ",
"X . o + + + + + + + + + + + + + + + + + + + + + + + + + + + + o . X . o + + + + + + + + + + + + + + + + + + + + + + + + + o . X ",
"X o = 5 5 5 5 5 5 5 5 5 5 5 5 5 5 5 5 5 5 5 5 5 5 5 5 5 5 q q $ . X o 4 4 4 4 4 4 4 4 4 4 4 4 4 4 4 4 4 4 4 4 4 4 4 4 4 4 * o X ",
"X + 5 u u u u u u u u u u u u u u u u u u u u u u u u g g v k $ X . % x f f t t t t t t t t t t t t t t t t t t t t t t t 4 + X ",
"X + 5 u u u u u u u u u u u u u u u u u u u u u u g g v v B f + X . : N x x f f t t t t t t t t t t t t t t t t t t t t t 4 + X ",
"X + 5 u u u u u u u u u u u u u u u u u u u u g g v v B B G r X X X 9 F N N x x f f t t t t t t t t t t t t t t t t t t t 4 + X ",
"X + 5 u u u u u u u u u u u u u u u u u u g g v v B B G G Y 8 X X + l U F F N N x x f f t t t t t t t t t t t t t t t t t 4 + X ",
"X O 5 u u u u u u u u u u u u u u u u g g v v B B G G Y Y R 3 . X & J R U U F F N N x x f f t t t t t t t t t t t t t t t 4 + X ",
"X . # r u u u u u u u u u u u u u g g v v B B G G Y Y R R ~ > X X < W E R R U U F F N N x x f f t t t t t t t t t t t t t 4 + X ",
"X X . + > u u u u u u u u u u g g v v B B G G Y Y R R W W E & X . w ! ! E E R R U U F F N N x x f f t t t t t t t t t t t 4 o X ",
"X X X . o # 8 u u u u u u g g v v B B G G Y Y R R W W ! ! A + X X k ~ ~ ! ! E E R R U U F F N N x x f f t t t t t t t t t # . X ",
"X . . X X . O & y u u g g v v B B G G Y Y R R W W ! ! ^ ^ k X X @ G ) ) ~ ~ ! ! E E R R U U F F N N x x f f t t t t t w # . . X ",
"X . . . X X . X @ , u g v B B G G Y Y R R W W ! ! ^ ^ ) ) u . X = [ ` ` ) ) ~ ~ ! ! E E R R U U F F N N x f t t t t 5 @ . X X X ",
"X o %   . . X X . X % d B G G Y Y R R W W ! ! ^ ^ ) ) ` ' 5 X X 5 ..[ [ ` ` ) ) ~ ~ ! ! E E R R U U F F N x f t t - O . X X . X ",
"X o * 3 = X . . X X X # 5 D Y R R W W ! ! ^ ^ ) ) ` ` [ o.; X . i X.| | [ [ ` ` ) ) ~ ~ ! ! E E R R U F N x f r # X . X . O @ X ",
"X o * 3 3 3 X X . X X . O 1 M W W ! ! ^ ^ ) ) ` ` [ [  .! $ X X m @.X.X.| | [ [ ` ` ) ) ~ ~ ! ! E E R U F N s % X X X . & 7 = X ",
"X o * 3 3 3 3 > . o . X X . % r ) ^ ^ ) ) ` ` [ [  . .o.D o X + ^ %.@.@.X.X.| | [ [ ` ` ) ) ~ ~ ! E R U F t $ . X X X : j c = X ",
"X o * 3 3 3 3 3 0 2 % o . X X o 2 Z ) ` ` [ [  . .o.o.@.l . X = $.=.%.%.@.@.X.X.| | [ [ ` ` ) ) ~ ! E R r # . X X O 4 C K c = X ",
"X o * 3 3 3 3 3 0 u h 3 & X X X . # u ' [  . .o.o.@.@.%.r . X 4 2.:.=.=.%.%.@.@.X.X.| | [ [ ` ) ~ ! E 7 O X X . % w K K K c = X ",
"X o * 3 3 3 3 0 u j b C M 8 % . X X X > n $.o.@.@.%.%.4.: X . y 1.<.:.:.=.=.%.%.@.@.X.X.| | [ ` ) U 4 X X X X < n R K K K c = X ",
"X o * 3 3 3 3 0 u j b C J T m 6 + . X X + 0 ^ %.%.$.G 9 X X . % t x G { *.2.=.=.%.%.@.@.X.| [ ` M ; . X X @ e Q ( R K K K c = X ",
"X o * 3 3 3 0 u j b C J T ~ / _ b 1 X X X . = 7 u : O . X X X X X . X @ - 5 p v P [ -.*.@.X.O.g $ . X . - b  .} { ( R K K c = X ",
"X o * 3 3 3 0 u j b C J T ~ / ) _ | d = . X X . . X X X X X X X X X X X X X X . o $ : 7 u c 1 O X X X 6 Y .. .} { ( R K K c = X ",
"X o * 3 3 0 u j b C J T ~ / ) _ ' {  .Q e o X X X X + 1 x M E m i 2 * O X X X X X X X X . . . X X + f $.@.o... .} { ( R K c = X ",
"X o * 3 3 0 u j b C J T ~ / ) _ ' {  .O.%.r . X X y ` p.g.j.j.l.z.g.6.X.J x q > $ o X X X X X . $ Z :.%.@.o... .} { ( R K c = X ",
"X o * 3 0 u j b C J T ~ / ) _ ' {  .O.#.&.z . X : s.g.j.j.l.l.x.x.x.l.l.j.j.g.p.-.~ M i ; X X . M 1.>.-.%.@.o... .} { ( R c = X ",
"X o * 3 0 u j b C J T ~ / ) _ ' {  .O.#.&.u . X q g.j.l.l.x.x.c.c.c.x.x.l.l.j.g.s.i.t.e.) + X O ] 1.>.-.%.@.o... .} { ( R c = X ",
"X o * 0 u j b C J T ~ / ) _ ' {  .O.#.&.;.9 X X f j.l.x.x.c.c.c.c.c.c.c.x.x.l.j.g.s.i.t.@.@ X @ } 4.1.>.-.%.@.o... .} { ( M = X ",
"X o * 0 u j b C J T ~ / ) _ ' {  .O.#.&.5.1 X X N j.l.x.c.c.c.c.c.c.c.c.c.x.l.j.g.s.i.t.@.@ X @ } 4.1.>.-.%.@.o... .} { ( M = X ",
"X o < u j b C J T ~ / ) _ ' {  .O.#.&.-.$.- X X Q l.x.c.c.c.c.c.c.c.c.c.c.c.x.l.j.g.s.i.%.@ X @ X.6.4.1.>.-.%.@.o... .} { A - X ",
"X o < u j b C J T ~ / ) _ ' {  .O.#.&.-.{ @ X O X.l.x.c.c.c.c.c.c.c.c.c.c.c.x.l.j.g.s.i.%.@ X @ X.6.4.1.>.-.%.@.o... .} { A - X ",
"X O 6 j b C J T ~ / ) _ ' {  .O.#.&.-.>.R o X $ 5.x.c.c.c.c.c.c.c.c.c.c.c.c.c.x.l.j.g.s.=.@ X @ O.9.6.4.1.>.-.%.@.o... .} K : X ",
"X O 6 j b C J T ~ / ) _ ' {  .O.#.&.-.>.Z . X , y.x.c.c.c.c.c.c.c.c.c.c.c.c.c.x.l.j.g.s.=.@ X @ O.9.6.4.1.>.-.%.@.o... .} K : X ",
"X O 6 j b C J T ~ / ) _ ' {  .O.#.&.-.>.j . X 7 j.x.c.c.c.c.c.c.c.c.c.c.c.c.c.x.l.j.g.s.=.@ X @ O.9.6.4.1.>.-.%.@.o... .} K : X ",
"X o < u j b C J T ~ / ) _ ' {  .O.#.&.-.r X X y j.l.x.c.c.c.c.c.c.c.c.c.c.c.x.l.j.g.s.i.%.@ X @ X.6.4.1.>.-.%.@.o... .} { A - X ",
"X o < u j b C J T ~ / ) _ ' {  .O.#.&.<.5 X X x j.l.x.c.c.c.c.c.c.c.c.c.c.c.x.l.j.g.s.i.%.@ X @ X.6.4.1.>.-.%.@.o... .} { A - X ",
"X o * 0 u j b C J T ~ / ) _ ' {  .O.#.%.= X X S g.j.l.x.c.c.c.c.c.c.c.c.c.x.l.j.g.s.i.t.@.+ X @ } 4.1.>.-.%.@.o... .} { ( M = X ",
"X o * 0 u j b C J T ~ / ) _ ' {  .O.%.l X X X n g.j.l.x.x.c.c.c.c.c.c.c.x.x.l.j.g.s.f.{ w X X @ } 4.1.>.-.%.@.o... .} { ( M = X ",
"X o * 3 0 u j b C J T ~ / ) _ ' { ~ r o X X X & T g.j.l.l.x.x.c.c.c.x.x.l.l.j.h.$.B 4 @ X X X . e 1.>.-.%.@.o... .} { ( R c = X ",
"X o * 3 0 u j b C J T ~ / ) _ ..l - . X X X X X # b p.j.j.l.l.x.x.x.l.l.k.2.J q $ X X X X X X X & / >.-.%.@.o... .} { ( R c = X ",
"X o * 3 3 0 u j b C J T ~ / v 1 o X X X - 1 # X X X q -.g.j.j.l.l.l.q.Y y * X X X X X O > 4 O X . 9 2.%.@.o... .} { ( R K c = X ",
"X o * 3 3 0 u j b C J T V 9 # . X X @ i &.g.W , X X X > T g.f.u./ s ; o X X X X o - u U 0.8.g . X o m %.@.o... .} { ( R K c = X ",
"X o * 3 3 3 0 u j b m 6 % . X X . 1 I p.y.p.d.:.w X X X @ 9 j , O X X X X X & t J 6.e.0.7.5.*.1 X X = E o... .} { ( R K K c = X ",
"X o * 3 3 3 0 u j 9 - X X X . $ h 2.w.r.y.p.p.d.p.m @ X X X X X X X X $ 0 F ;.p.e.e.0.0.7.5.2.F + X . 0 %... .} { ( R K K c = X ",
"X o * 3 3 3 3 1 # O . X X o 6 R 5.6.8.w.r.y.y.p.p.g.R % X X X X @ 6 B +.d.t.e.e.0.0.7.7.5.2.,.<.r . X O x  .} { ( R K K K c = X ",
"X o * 3 3 2 o o . X X . = v 2.1.4.6.8.w.w.r.r.y.y.p.p.! o X X 4  .f.t.t.e.e.0.0.7.7.5.5.2.2.,.;.) = X X = P } { ( R K K K c = X ",
"X o * 3 $ X . . X X O 9 W %.=.>.1.4.6.8.8.w.w.r.r.y.y.f.6 X X g t.t.e.e.0.0.7.7.5.5.2.2.,.,.;.*.#.v o X . 7 ` ( R K K K K c = X ",
"X o $ . X . X X . - z &.$.%.=.>.1.4.4.6.6.8.8.w.w.r.r.y.c X X 4 a.e.0.0.7.7.5.5.2.2.,.,.;.;.*.*.#.-.7 . X + f ( R K K K K c = X ",
"X . . . X X . @ 7 S X.@.#.$.%.=.>.1.1.4.4.6.6.8.8.w.w.r.L o X * 1.0.7.7.5.5.2.2.,.,.;.;.*.*.#.#.O...F $ X X = M K K K K K c = X ",
"X . . X X X : g / ] X.@.#.$.%.=.=.>.>.1.1.4.4.6.6.8.8.w.X.@ X O E 7.5.5.2.2.,.,.;.;.*.*.#.#.O.O.....| y X X . 3 H K K K K c = X ",
"X X X . $ e L / / / ] X.@.#.$.%.%.=.=.>.>.1.1.4.4.6.6.8.6.> X . n 5.2.2.,.,.;.;.*.*.#.#.O.O.....| | } Q : . X O w K K K K c = X ",
"X X X 3 b / / / / / ] X.@.#.#.$.$.%.%.=.=.>.>.1.1.4.4.6.8.w X X w 3.,.,.;.;.*.*.#.#.O.O.....| | } } [ [ g + X . * M K K K c = X ",
"X o w W / / / / / / / ] X.@.@.#.#.$.$.%.%.=.=.>.>.1.1.4.4.l . X , 3.;.;.*.*.#.#.O.O.....| | } } [ [ ' ' Q 1 . X X 3 K K K c = X ",
"X = Z / / / / / / / / ] ] X.X.@.@.#.#.$.$.%.%.=.=.>.>.1.1.K o X # ` *.*.#.#.O.O.....| | } } [ [ ' ' ~ ~ U m % X X @ u K K c = X ",
"X : Z / / / / / / / / / / ] ] X.X.@.@.#.#.$.$.%.%.=.=.>.>.] $ X o C #.#.O.O.....| | } } [ [ ' ' ~ ~ U U G G 9 o X . - C K c = X ",
"X : Z / / / / / / / / / / / / ] ] X.X.@.@.#.#.$.$.%.%.=.=.2., X . a O.O.....| | } } [ [ ' ' ~ ~ U U G G G G A : . X X 6 K c = X ",
"X : Z / / / / / / / / / / / / / / ] ] X.X.@.@.#.#.$.$.%.%.-.0 X X 6 o...| | } } [ [ ' ' ~ ~ U U G G G G G G G s # X X @ s c = X ",
"X : Z / / / / / / / / / / / / / / / / ] ] X.X.@.@.#.#.$.$.%.j . X = _ | } } [ [ ' ' ~ ~ U U G G G G G G G G G G 6 X X . : j = X ",
"X : Z / / / / / / / / / / / / / / / / / / ] ] X.X.@.@.#.#.$.V o X O C } [ [ ' ' ~ ~ U U G G G G G G G G G G G G V ; . X o 3 = X ",
"X : Z / / / / / / / / / / / / / / / / / / / / ] ] X.X.@.@.#.T % X X p [ ' ' ~ ~ U U G G G G G G G G G G G G G G G y + X X @ % X ",
"X : Z / / / / / / / / / / / / / / / / / / / / / / ] ] X.X.@.} : X . 5 ' ~ ~ U U G G G G G G G G G G G G G G G G G G 4 X X . O X ",
"X * j Z Z Z Z Z Z Z Z Z Z Z Z Z Z Z Z Z Z Z Z Z Z Z Z H H U U 4 . X % b n n z z z z z z z z z z z z z z z z z z z z p % . X . X ",
"X O = : : : : : : : : : : : : : : : : : : : : : : : : : : > > $ . X X % * * * * * * * * * * * * * * * * * * * * * * * $ . X . X ",
"X X X X X X X X X X X X X X X X X X X X X X X X X X X X X X X X X X X X X X X X X X X X X X X X X X X X X X X X X X X X X X X X "
};
